<?xml version="1.0" encoding="UTF-8"?>
<svg width="311px" height="278px" viewBox="0 0 311 278" version="1.1" xmlns="http://www.w3.org/2000/svg" xmlns:xlink="http://www.w3.org/1999/xlink">
    <title>logo</title>
    <defs>
        <polygon id="path-1" points="0 278 310 278 310 0 0 0"></polygon>
        <polygon id="path-3" points="15.7680787 22.5465032 20 24 3.32905434 0.155731795 0 0"></polygon>
        <linearGradient x1="49.9979589%" y1="-140.108569%" x2="49.9979589%" y2="440.903859%" id="linearGradient-5">
            <stop stop-color="#44BCFB" offset="0%"></stop>
            <stop stop-color="#1A8ADD" offset="100%"></stop>
        </linearGradient>
        <polygon id="path-6" points="99.3434589 0 1.32765312 30.6274711 0 133.839559 96.2911375 166.690892 97.1918925 167 91.1854361 162.165891 2.64249929 131.954857 3.9274626 32.5722769 98.3018275 3.08678886 117.683002 30.6532302 121 30.8077843"></polygon>
        <linearGradient x1="49.9994775%" y1="0.55213913%" x2="49.9994775%" y2="83.4194866%" id="linearGradient-8">
            <stop stop-color="#44BCFB" offset="0%"></stop>
            <stop stop-color="#1A8ADD" offset="100%"></stop>
        </linearGradient>
        <polygon id="path-9" points="14.3858845 49 15 4.75657492 0 0"></polygon>
        <linearGradient x1="49.9974244%" y1="-127.647212%" x2="49.9974244%" y2="154.000403%" id="linearGradient-11">
            <stop stop-color="#44BCFB" offset="0%"></stop>
            <stop stop-color="#1A8ADD" offset="100%"></stop>
        </linearGradient>
        <polygon id="path-12" points="18 26 12.1471351 4.20836806 0 0"></polygon>
        <linearGradient x1="49.9987527%" y1="-222.0574%" x2="49.9987527%" y2="315.274981%" id="linearGradient-14">
            <stop stop-color="#44BCFB" offset="0%"></stop>
            <stop stop-color="#1A8ADD" offset="100%"></stop>
        </linearGradient>
        <polygon id="path-15" points="0 47 72.673455 24.9065939 73 0"></polygon>
        <linearGradient x1="50.0001024%" y1="-246.105604%" x2="50.0001024%" y2="42.2953037%" id="linearGradient-17">
            <stop stop-color="#44BCFB" offset="0%"></stop>
            <stop stop-color="#1A8ADD" offset="100%"></stop>
        </linearGradient>
        <polygon id="path-18" points="0 83 70 32.2027048 61.266008 0"></polygon>
        <linearGradient x1="50.0000311%" y1="-101.218327%" x2="50.0000311%" y2="66.4517352%" id="linearGradient-20">
            <stop stop-color="#44BCFB" offset="0%"></stop>
            <stop stop-color="#1A8ADD" offset="100%"></stop>
        </linearGradient>
        <polygon id="path-21" points="0 60.9226662 36.7894163 112.638039 41.5532959 119.338545 44.1576652 123 103 40.2588379 83.3916471 12.6884662 45.7643408 0"></polygon>
        <linearGradient x1="50.0015867%" y1="-34.9999072%" x2="50.0015867%" y2="77.4920471%" id="linearGradient-23">
            <stop stop-color="#44BCFB" offset="0%"></stop>
            <stop stop-color="#1A8ADD" offset="100%"></stop>
        </linearGradient>
    </defs>
    <g id="页面-1" stroke="none" stroke-width="1" fill="none" fill-rule="evenodd">
        <g id="登陆备份-10" transform="translate(-528.000000, -433.000000)">
            <g id="logo" transform="translate(528.000000, 433.000000)">
                <polygon id="Fill-1" fill="#00A0E9" points="17.4425327 207 17.4425327 210.704772 12.0739357 210.704772 13.3630911 207 5.03549307 207 0 221.084083 8.37518435 221.084083 10.2829614 216.440372 17.4425327 216.440372 17.4425327 227.363502 0.718120146 227.363502 0.718120146 233.031123 17.4425327 233.031123 17.4425327 244.260152 0.259561498 244.260152 0.259561498 250 41.9970504 250 44 244.260152 25.8653033 244.260152 25.8653033 233.031123 38.8736604 233.031123 40.9025661 227.363502 25.8653033 227.363502 25.8653033 216.440372 39.0683315 216.440372 41.0929112 210.704772 25.8653033 210.704772 25.8653033 207"></polygon>
                <path d="M71.7245382,229.370852 L56.3354194,229.370852 L56.3354194,223.857706 L96.0418896,223.857706 L93.5151913,229.370852 L79.9278288,229.370852 L79.9278288,245.673166 L97,245.673166 L94.5708085,251 L55.5384072,251 L55.5384072,245.673166 L71.7245382,245.673166 L71.7245382,229.370852 Z M81.1954174,208 L96.8134652,222.274052 L86.0071666,222.274052 L76.0699505,214.169473 L65.7851014,222.409552 L55,222.409552 L70.927526,208 L81.1954174,208 Z" id="Fill-2" fill="#00A0E9"></path>
                <path d="M142.920056,212.4461 L137.746578,212.4461 L137.746578,223.502156 L142.945646,223.454724 L142.920056,212.4461 Z M130.709284,228.473932 L130.709284,209.164641 L150,209.164641 L150,222.19561 L142.945646,228.473932 L130.709284,228.473932 Z M116.169808,235.399059 L116.169808,238.775382 L141.133009,238.775382 L139.085796,243.268522 L116.169808,243.268522 L116.169808,246.407683 L141.934834,246.407683 L141.934834,235.399059 L116.169808,235.399059 Z M108.479964,230.617013 L149.650268,230.617013 L149.650268,244.579381 L141.913509,251 L108.479964,251 L108.479964,230.617013 Z M116.835152,209.069777 L130.005554,209.069777 L127.70244,213.873383 L123.232692,213.873383 L123.232692,216.253626 L129.839218,216.253626 L127.70244,220.914935 L123.72317,220.914935 L130.948125,229.02156 L122.92561,229 L119.607419,225.313211 L115.70492,229.094865 L107.136481,229.094865 L115.538584,220.914935 L107.703729,220.914935 L107.703729,216.253626 L116.169808,216.253626 L116.169808,213.873383 L114.574688,213.873383 L114.079944,214.916895 L107,214.96864 L110.719103,207 L117.799048,207 L116.835152,209.069777 Z" id="Fill-3" fill="#00A0E9"></path>
                <path d="M190.925154,230.342546 L190.925154,234.495913 L201.334463,230.813546 L200.344529,236.48696 L190.925154,240.070845 L190.925154,246.493577 L204,246.493577 L201.754435,251.216427 L183.905621,251.216427 L183.905621,230.342546 L190.925154,230.342546 Z M183.905621,208 L190.925154,208 L190.925154,212.461658 L201.540163,209.935383 L200.597369,215.934216 L191.019434,218.13079 L191.019434,224.202413 L203.948575,224.202413 L201.754435,228.925263 L183.905621,228.925263 L183.905621,208 Z M174.100558,239.548462 L174.100558,232.25652 L172.510664,236.054496 L168.683775,236.054496 L168.683775,239.548462 L174.100558,239.548462 Z M168.688061,231.353056 L174.100558,231.353056 L174.100558,227.74348 L168.688061,227.74348 L168.688061,231.353056 Z M174.100558,240.614636 L172.609229,244.249903 L168.683775,244.249903 L168.683775,249.285325 L161.591389,252 L161.591389,223.067731 L181.214371,223.067731 L181.214371,245.714286 L175.373331,251.362009 L170.625075,251.362009 L170.625075,246.493577 L174.100558,246.493577 L174.100558,240.614636 Z M168.683775,216.148307 L174.357684,216.148307 L173.149193,211.682367 L179.791609,211.682367 L182.178593,220.871156 L175.540462,220.871156 L174.593382,217.184508 L172.986346,220.871156 L161,220.871156 L161,215.745815 L166.648196,208 L174.237692,208 L168.683775,216.148307 Z" id="Fill-4" fill="#00A0E9"></path>
                <g id="编组" transform="translate(1.000000, 0.000000)">
                    <path d="M240.742376,224.630418 C241.418858,224.647532 242.091059,224.827232 242.750414,225.173796 C243.40977,225.52036 243.927835,226.025231 244.296047,226.684131 C244.664259,227.34303 244.856928,228.044716 244.861209,228.780629 C244.869772,229.5251 244.69423,230.205393 244.330299,230.834342 C243.953525,231.497521 243.439741,232.00667 242.797511,232.370349 C242.151,232.734027 241.465955,232.913727 240.742376,232.913727 C239.984545,232.926563 239.295218,232.75542 238.665833,232.378906 C238.036448,232.010949 237.526946,231.497521 237.141608,230.847178 C236.751989,230.196836 236.572165,229.499429 236.585009,228.759237 C236.585009,228.053273 236.777678,227.360145 237.167297,226.684131 C237.548354,226.008117 238.066419,225.494689 238.71293,225.148125 C239.35516,224.805839 240.035923,224.630418 240.742376,224.630418 L240.742376,224.630418 Z M240.742376,210.519698 C241.388887,210.532534 242.048243,210.720791 242.729007,211.071634 C243.401207,211.426755 243.927835,211.927347 244.296047,212.569133 C244.664259,213.215197 244.856928,213.916882 244.861209,214.682746 C244.869772,215.448609 244.69423,216.13318 244.330299,216.749294 C243.953525,217.373965 243.439741,217.878836 242.784667,218.255351 C242.133874,218.636143 241.448829,218.8244 240.742376,218.8244 C240.001671,218.837236 239.308063,218.661815 238.665833,218.281022 C238.019322,217.904508 237.50982,217.39108 237.141608,216.749294 C236.769115,216.10323 236.585009,215.414381 236.576446,214.682746 C236.567883,213.95111 236.75627,213.253704 237.154453,212.594804 C237.531228,211.91879 238.053574,211.401083 238.721493,211.050241 C239.389412,210.690841 240.065894,210.519698 240.742376,210.519698 L240.742376,210.519698 Z M247.121858,207.071172 L253.638349,207.071172 L253.638349,238.67268 L256.849497,238.480145 L255.008439,244.050841 L253.638349,244.170641 L253.638349,249.150895 L247.121858,251.842115 L247.121858,244.431634 L235.309113,245.27879 L235.309113,239.78083 L247.121858,238.976459 L247.121858,207.071172 Z M233.326764,224.677482 L234.838144,248.256674 L229.220775,248.256674 L227.777899,224.677482 L233.326764,224.677482 Z M227.088572,222.247255 L227.088572,249.031095 L220.833255,251.273065 L220.833255,222.247255 L212.852481,222.247255 L212.852481,217.006008 L220.833255,217.006008 L220.833255,213.467632 L213.250663,214.194989 L213.250663,208.6029 L234.838144,206.626201 L233.446647,212.09849 L227.088572,212.902861 L227.088572,217.006008 L234.838144,217.006008 L232.453331,222.247255 L227.088572,222.247255 Z M212.685501,250.896551 L212.685501,224.677482 L218.422753,224.677482 L218.589733,250.896551 L212.685501,250.896551 Z" id="Fill-5" fill="#00A0E9"></path>
                    <path d="M292.19568,219.250973 L292.19568,215.708319 L285.203939,215.708319 L285.203939,210.424286 L292.19568,210.424286 L292.19568,206.907303 L300.10795,206.907303 L300.10795,210.424286 L309.060632,210.424286 L306.48315,215.708319 L300.10795,215.708319 L300.10795,219.250973 L308.302801,219.250973 L308.302801,224.650527 L300.459035,237.349319 L309.814182,250.544425 L300.578918,250.544425 L296.186067,244.147965 L292.289873,250.424625 L283.195901,250.424625 L291.510635,237.349319 L284.848572,227.696868 L293.70706,227.696868 L295.783603,230.64908 L299.611292,224.650527 L285.203939,224.650527 L285.203939,219.250973 L292.19568,219.250973 Z M280.48141,220.688573 L284.660185,220.688573 L280.48141,228.197461 L280.48141,245.187657 L273.964919,250.895267 L267.328545,250.895267 L267.328545,245.632628 L272.924507,245.632628 L272.924507,238.718461 L265.675874,238.718461 L272.924507,226.113798 L272.924507,216.371497 L266.737694,216.371497 L266.737694,210.989057 L272.924507,210.989057 L272.924507,207.069888 L280.48141,207.069888 L280.48141,210.989057 L284.236313,210.989057 L281.731617,216.371497 L280.48141,216.371497 L280.48141,220.688573 Z" id="Fill-7" fill="#00A0E9"></path>
                    <path d="M1.89885918,276.43276 L5.50390862,276.43276 C7.3406856,276.43276 8.61230043,275.684011 8.61230043,274.109497 C8.61230043,272.736077 7.59329595,271.811906 5.13569692,271.811906 L1.89885918,271.811906 L1.89885918,276.43276 Z M5.22989061,270.42565 C7.34924866,270.42565 8.17130269,269.70685 8.17130269,268.474623 C8.17130269,267.353638 7.24649191,266.553545 5.52959781,266.553545 L1.89885918,266.553545 L1.89885918,270.42565 L5.22989061,270.42565 Z M0.0021407657,265.171568 L5.60666538,265.171568 C8.68936799,265.171568 10.123681,266.574938 10.123681,268.324873 C10.123681,269.7967 9.15177338,270.7551 8.03001215,271.084549 C9.04901663,271.366935 10.6074941,272.256877 10.6074941,274.113776 C10.6074941,276.496939 8.50954367,277.819017 5.73939285,277.819017 L0.0021407657,277.819017 L0.0021407657,265.171568 Z" id="Fill-9" fill="#00A0E9"></path>
                    <mask id="mask-2" fill="white">
                        <use xlink:href="#path-1"></use>
                    </mask>
                    <g id="Clip-12"></g>
                    <polygon id="Fill-11" fill="#00A0E9" mask="url(#mask-2)" points="21.9685376 277.816022 23.9080714 277.816022 23.9080714 265.168573 21.9685376 265.168573"></polygon>
                    <path d="M37.3276753,271.439243 C37.3276753,274.16897 38.9460941,276.569247 42.0801751,276.569247 C45.471148,276.569247 46.8198304,274.147577 46.8198304,271.443521 C46.8198304,268.722352 45.2913237,266.416203 42.0844567,266.416203 C38.7791144,266.416203 37.3276753,268.739466 37.3276753,271.439243 M48.8449948,271.422129 C48.8449948,274.900605 46.5971908,277.998289 41.998826,277.998289 C37.7001685,277.998289 35.3025109,275.12309 35.3025109,271.490586 C35.3025109,267.875195 37.7472653,264.987161 42.1615242,264.987161 C46.2760759,264.987161 48.8449948,267.661267 48.8449948,271.422129" id="Fill-13" fill="#00A0E9" mask="url(#mask-2)"></path>
                    <path d="M67.3776034,272.585471 C65.9861057,269.261023 65.2239931,267.493975 64.9071598,266.527018 L64.8900337,266.527018 C64.5303851,267.605217 63.6740788,269.740223 62.5565991,272.585471 L67.3776034,272.585471 Z M62.0513784,274.02307 L60.4800564,277.818161 L58.5533672,277.818161 L63.7554279,265.170712 L66.1359593,265.170712 L71.5563781,277.818161 L69.49268,277.818161 L67.8785426,274.02307 L62.0513784,274.02307 Z" id="Fill-14" fill="#00A0E9" mask="url(#mask-2)"></path>
                    <polygon id="Fill-15" fill="#00A0E9" mask="url(#mask-2)" points="82.2310922 277.816022 84.1706259 277.816022 84.1706259 265.168573 82.2310922 265.168573"></polygon>
                    <polygon id="Fill-16" fill="#00A0E9" mask="url(#mask-2)" points="99.508784 266.606599 94.794818 266.606599 94.794818 265.169 106.175128 265.169 106.175128 266.606599 101.456881 266.606599 101.456881 277.816449 99.508784 277.816449"></polygon>
                    <polygon id="Fill-17" fill="#00A0E9" mask="url(#mask-2)" points="125.791821 271.903895 118.530344 271.903895 118.530344 276.379278 126.502555 276.379278 126.258508 277.816877 116.633625 277.816877 116.633625 265.169428 126.138625 265.169428 126.138625 266.607027 118.530344 266.607027 118.530344 270.466296 125.791821 270.466296"></polygon>
                    <path d="M149.115463,274.231009 C148.468952,276.374572 146.61933,277.974756 143.305425,277.974756 C138.942545,277.974756 136.741837,275.103837 136.741837,271.531232 C136.741837,268.091263 138.942545,264.985022 143.378211,264.985022 C146.820562,264.985022 148.691592,266.683614 149.119745,268.797227 L147.184493,268.797227 C146.666427,267.423806 145.608889,266.384114 143.301144,266.384114 C140.081432,266.384114 138.767002,268.921305 138.767002,271.479889 C138.767002,273.961459 140.017209,276.575664 143.386774,276.575664 C145.634578,276.575664 146.61933,275.458958 147.171648,274.231009 L149.115463,274.231009 Z" id="Fill-18" fill="#00A0E9" mask="url(#mask-2)"></path>
                    <polygon id="Fill-19" fill="#00A0E9" mask="url(#mask-2)" points="160.338642 265.169428 162.278175 265.169428 162.278175 270.449182 169.886457 270.449182 169.886457 265.169428 171.817427 265.169428 171.817427 277.816877 169.886457 277.816877 169.886457 271.886781 162.278175 271.886781 162.278175 277.816877 160.338642 277.816877"></polygon>
                    <path d="M184.149094,277.817733 L184.149094,265.170284 L186.713731,265.170284 C188.8074,268.126775 193.358668,274.416271 194.176441,275.79397 L194.206411,275.79397 C194.065121,274.172392 194.082247,272.174301 194.082247,270.107752 L194.082247,265.170284 L195.910461,265.170284 L195.910461,277.817733 L193.50424,277.817733 C191.573269,275.07517 186.825051,268.306475 185.908803,266.88599 L185.883114,266.88599 C185.985871,268.327868 185.985871,270.467152 185.985871,272.751908 L185.985871,277.817733 L184.149094,277.817733 Z" id="Fill-20" fill="#00A0E9" mask="url(#mask-2)"></path>
                    <path d="M209.341197,271.439243 C209.341197,274.16897 210.959615,276.569247 214.093696,276.569247 C217.484669,276.569247 218.833352,274.147577 218.833352,271.443521 C218.833352,268.722352 217.304845,266.416203 214.097978,266.416203 C210.792636,266.416203 209.341197,268.739466 209.341197,271.439243 M220.858516,271.422129 C220.858516,274.900605 218.610712,277.998289 214.012347,277.998289 C209.71369,277.998289 207.316032,275.12309 207.316032,271.490586 C207.316032,267.875195 209.760787,264.987161 214.179327,264.987161 C218.289597,264.987161 220.858516,267.661267 220.858516,271.422129" id="Fill-21" fill="#00A0E9" mask="url(#mask-2)"></path>
                    <polygon id="Fill-22" fill="#00A0E9" mask="url(#mask-2)" points="232.256809 265.169428 234.196343 265.169428 234.196343 276.379278 241.808906 276.379278 241.539169 277.816877 232.256809 277.816877"></polygon>
                    <path d="M253.134412,271.439243 C253.134412,274.16897 254.752831,276.569247 257.886912,276.569247 C261.277885,276.569247 262.626568,274.147577 262.626568,271.443521 C262.626568,268.722352 261.098061,266.416203 257.891194,266.416203 C254.585852,266.416203 253.134412,268.739466 253.134412,271.439243 M264.651732,271.422129 C264.651732,274.900605 262.403928,277.998289 257.805563,277.998289 C253.506906,277.998289 251.109248,275.12309 251.109248,271.490586 C251.109248,267.875195 253.554003,264.987161 257.968261,264.987161 C262.082813,264.987161 264.651732,267.661267 264.651732,271.422129" id="Fill-23" fill="#00A0E9" mask="url(#mask-2)"></path>
                    <path d="M287.881181,277.817733 L286.395489,277.817733 C286.297014,277.573855 286.237073,277.009083 286.207102,276.102027 C285.573435,277.000526 284.318946,277.988876 281.677242,277.988876 C277.464215,277.988876 275.233537,275.220642 275.233537,271.622366 C275.233537,267.835832 277.631194,264.986306 282.032609,264.986306 C285.427863,264.986306 287.560066,266.577933 287.975374,268.837017 L286.044404,268.837017 C285.547746,267.42509 284.374606,266.385397 281.994075,266.385397 C278.603102,266.385397 277.258701,268.730053 277.258701,271.541073 C277.258701,274.146721 278.611665,276.576948 281.912726,276.576948 C285.183816,276.576948 285.997307,274.690099 285.997307,272.555093 L285.997307,272.426736 L281.887037,272.426736 L281.887037,270.989137 L287.881181,270.989137 L287.881181,277.817733 Z" id="Fill-24" fill="#00A0E9" mask="url(#mask-2)"></path>
                    <path d="M302.66274,277.817733 L302.66274,273.175486 C302.66274,273.055686 302.628487,272.927329 302.564264,272.841758 L297.422145,265.170284 L299.635697,265.170284 C300.962972,267.223997 303.073767,270.484266 303.745967,271.596694 C304.375352,270.501381 306.55037,267.21544 307.933305,265.170284 L310.001284,265.170284 L304.696467,272.867429 C304.64937,272.948722 304.610836,273.017179 304.610836,273.1926 L304.610836,277.817733 L302.66274,277.817733 Z" id="Fill-25" fill="#00A0E9" mask="url(#mask-2)"></path>
                </g>
                <g id="编组" transform="translate(191.000000, 34.000000)">
                    <mask id="mask-4" fill="white">
                        <use xlink:href="#path-3"></use>
                    </mask>
                    <g id="Clip-27"></g>
                    <polygon id="Fill-26" fill="url(#linearGradient-5)" mask="url(#mask-4)" points="15.7680787 22.5465032 20 24 3.32905434 0.155731795 0 0"></polygon>
                </g>
                <g id="编组" transform="translate(70.000000, 0.000000)">
                    <mask id="mask-7" fill="white">
                        <use xlink:href="#path-6"></use>
                    </mask>
                    <g id="Clip-29"></g>
                    <polygon id="Fill-28" fill="url(#linearGradient-8)" mask="url(#mask-7)" points="99.3434589 0 1.32765312 30.6274711 0 133.839559 96.2911375 166.690892 97.1918925 167 91.1854361 162.165891 2.64249929 131.954857 3.9274626 32.5722769 98.3018275 3.08678886 117.683002 30.6532302 121 30.8077843"></polygon>
                </g>
                <polygon id="Fill-30" fill="#9ED144" points="219.346254 32.1363173 192.433016 30.8834079 189.096736 30.7289397 130.411642 28 99 111.352801 162.483678 162.168575 168.517286 167 168.517286 167 165.931454 163.33996 161.201483 156.646334 103.18536 110.202871 132.800213 31.6300046 191.669703 34.3675259 195.001695 34.5219941 216.636061 35.526038 223.986171 62.3391573 228 63.6993363"></polygon>
                <g id="编组" transform="translate(228.000000, 64.000000)">
                    <mask id="mask-10" fill="white">
                        <use xlink:href="#path-9"></use>
                    </mask>
                    <g id="Clip-33"></g>
                    <polygon id="Fill-32" fill="url(#linearGradient-11)" mask="url(#mask-10)" points="14.3858845 49 15 4.75657492 0 0"></polygon>
                </g>
                <g id="编组" transform="translate(211.000000, 58.000000)">
                    <mask id="mask-13" fill="white">
                        <use xlink:href="#path-12"></use>
                    </mask>
                    <g id="Clip-35"></g>
                    <polygon id="Fill-34" fill="url(#linearGradient-14)" mask="url(#mask-13)" points="18 26 12.1471351 4.20836806 0 0"></polygon>
                </g>
                <g id="编组" transform="translate(169.000000, 119.000000)">
                    <mask id="mask-16" fill="white">
                        <use xlink:href="#path-15"></use>
                    </mask>
                    <g id="Clip-37"></g>
                    <polygon id="Fill-36" fill="url(#linearGradient-17)" mask="url(#mask-16)" points="0 47 72.673455 24.9065939 73 0"></polygon>
                </g>
                <g id="编组" transform="translate(169.000000, 84.000000)">
                    <mask id="mask-19" fill="white">
                        <use xlink:href="#path-18"></use>
                    </mask>
                    <g id="Clip-39"></g>
                    <polygon id="Fill-38" fill="url(#linearGradient-20)" mask="url(#mask-19)" points="0 83 70 32.2027048 61.266008 0"></polygon>
                </g>
                <g id="编组" transform="translate(124.000000, 43.000000)">
                    <mask id="mask-22" fill="white">
                        <use xlink:href="#path-21"></use>
                    </mask>
                    <g id="Clip-41"></g>
                    <polygon id="Fill-40" fill="url(#linearGradient-23)" mask="url(#mask-22)" points="0 60.9226662 36.7894163 112.638039 41.5532959 119.338545 44.1576652 123 103 40.2588379 83.3916471 12.6884662 45.7643408 0"></polygon>
                </g>
            </g>
        </g>
    </g>
</svg>